# xmcd CD database file generated by Grip 2.96
# 
# Track frame offsets:
#       150
#       12432
#       23447
#       36142
#       50022
#       63064
# 
# Disc length: 1020 seconds
# 
# Revision: 0
# Processed by: cddbd v1.4PL0 Copyright (c) Steve Scherf et al.
# Submitted via: Grip 2.96
# 
DISCID=3f03fa06
DTITLE=Marti Brom - Feudin' and Fightin'
DYEAR=1900
DGENRE=
TTITLE0=Feudin' and Fightin'
TTITLE1=Kiss Me Big
TTITLE2=Making Love Tennessee Style
TTITLE3=Moon Shine Lullabye
TTITLE4=Flat River Missouri
TTITLE5=They Were Doing The Mambo
EXTD=
EXTT0=
EXTT1=
EXTT2=
EXTT3=
EXTT4=
EXTT5=
PLAYORDER=
